<mxfile host="Electron" modified="2024-07-26T14:00:45.926Z" agent="Mozilla/5.0 (X11; Linux x86_64) AppleWebKit/537.36 (KHTML, like Gecko) draw.io/24.6.4 Chrome/124.0.6367.207 Electron/30.0.6 Safari/537.36" etag="EwdNpUIBmguSFsvxJn2x" version="24.6.4" type="device">
  <diagram name="Page-1" id="owZ81ZbTEIAXeqGprNkx">
    <mxGraphModel dx="1815" dy="1955" grid="1" gridSize="10" guides="1" tooltips="1" connect="1" arrows="1" fold="1" page="1" pageScale="1" pageWidth="827" pageHeight="1169" math="0" shadow="0">
      <root>
        <mxCell id="0" />
        <mxCell id="1" parent="0" />
        <mxCell id="Ra-5EAyiwIRAFrKvSMrq-51" value="" style="rounded=0;whiteSpace=wrap;html=1;fillColor=none;movable=0;resizable=0;rotatable=0;deletable=0;editable=0;locked=1;connectable=0;" vertex="1" parent="1">
          <mxGeometry y="-515" width="830" height="1320" as="geometry" />
        </mxCell>
        <mxCell id="Ra-5EAyiwIRAFrKvSMrq-1" value="Administrateur" style="shape=umlActor;verticalLabelPosition=bottom;verticalAlign=top;html=1;" vertex="1" parent="1">
          <mxGeometry x="-80" y="590" width="30" height="60" as="geometry" />
        </mxCell>
        <mxCell id="Ra-5EAyiwIRAFrKvSMrq-10" value="Modérateur" style="shape=umlActor;verticalLabelPosition=bottom;verticalAlign=top;html=1;" vertex="1" parent="1">
          <mxGeometry x="-80" y="290" width="30" height="60" as="geometry" />
        </mxCell>
        <mxCell id="Ra-5EAyiwIRAFrKvSMrq-11" value="Membre" style="shape=umlActor;verticalLabelPosition=bottom;verticalAlign=top;html=1;" vertex="1" parent="1">
          <mxGeometry x="-80" y="-110" width="30" height="60" as="geometry" />
        </mxCell>
        <mxCell id="Ra-5EAyiwIRAFrKvSMrq-12" value="Visiteur" style="shape=umlActor;verticalLabelPosition=bottom;verticalAlign=top;html=1;" vertex="1" parent="1">
          <mxGeometry x="-80" y="-480" width="30" height="60" as="geometry" />
        </mxCell>
        <mxCell id="Ra-5EAyiwIRAFrKvSMrq-15" value="Consulter les posts" style="ellipse;whiteSpace=wrap;html=1;" vertex="1" parent="1">
          <mxGeometry x="190" y="-485" width="140" height="70" as="geometry" />
        </mxCell>
        <mxCell id="Ra-5EAyiwIRAFrKvSMrq-16" value="Ajouter un post" style="ellipse;whiteSpace=wrap;html=1;" vertex="1" parent="1">
          <mxGeometry x="370" y="-210" width="140" height="70" as="geometry" />
        </mxCell>
        <mxCell id="Ra-5EAyiwIRAFrKvSMrq-17" value="Gérer ses posts" style="ellipse;whiteSpace=wrap;html=1;" vertex="1" parent="1">
          <mxGeometry x="370" y="-70" width="140" height="70" as="geometry" />
        </mxCell>
        <mxCell id="Ra-5EAyiwIRAFrKvSMrq-18" value="Modifier son post" style="ellipse;whiteSpace=wrap;html=1;" vertex="1" parent="1">
          <mxGeometry x="570" y="-210" width="140" height="70" as="geometry" />
        </mxCell>
        <mxCell id="Ra-5EAyiwIRAFrKvSMrq-19" value="Supprimer son post" style="ellipse;whiteSpace=wrap;html=1;" vertex="1" parent="1">
          <mxGeometry x="640" y="-70" width="140" height="70" as="geometry" />
        </mxCell>
        <mxCell id="Ra-5EAyiwIRAFrKvSMrq-20" value="&amp;lt;&amp;lt;include&amp;gt;&amp;gt;" style="html=1;verticalAlign=bottom;labelBackgroundColor=none;endArrow=open;endFill=0;dashed=1;rounded=0;exitX=0.5;exitY=0;exitDx=0;exitDy=0;entryX=0.5;entryY=1;entryDx=0;entryDy=0;" edge="1" parent="1" source="Ra-5EAyiwIRAFrKvSMrq-17" target="Ra-5EAyiwIRAFrKvSMrq-16">
          <mxGeometry x="-0.4286" width="160" relative="1" as="geometry">
            <mxPoint x="400" y="50" as="sourcePoint" />
            <mxPoint x="560" y="50" as="targetPoint" />
            <mxPoint as="offset" />
          </mxGeometry>
        </mxCell>
        <mxCell id="Ra-5EAyiwIRAFrKvSMrq-22" value="&amp;lt;&amp;lt;include&amp;gt;&amp;gt;" style="html=1;verticalAlign=bottom;labelBackgroundColor=none;endArrow=open;endFill=0;dashed=1;rounded=0;entryX=0.5;entryY=1;entryDx=0;entryDy=0;" edge="1" parent="1" source="Ra-5EAyiwIRAFrKvSMrq-17" target="Ra-5EAyiwIRAFrKvSMrq-18">
          <mxGeometry x="-0.4286" width="160" relative="1" as="geometry">
            <mxPoint x="520" y="-60" as="sourcePoint" />
            <mxPoint x="520" y="-130" as="targetPoint" />
            <mxPoint as="offset" />
          </mxGeometry>
        </mxCell>
        <mxCell id="Ra-5EAyiwIRAFrKvSMrq-23" value="&amp;lt;&amp;lt;include&amp;gt;&amp;gt;" style="html=1;verticalAlign=bottom;labelBackgroundColor=none;endArrow=open;endFill=0;dashed=1;rounded=0;exitX=1;exitY=0.5;exitDx=0;exitDy=0;entryX=0;entryY=0.5;entryDx=0;entryDy=0;" edge="1" parent="1" source="Ra-5EAyiwIRAFrKvSMrq-17" target="Ra-5EAyiwIRAFrKvSMrq-19">
          <mxGeometry x="-0.0625" width="160" relative="1" as="geometry">
            <mxPoint x="550" y="20" as="sourcePoint" />
            <mxPoint x="550" y="-50" as="targetPoint" />
            <mxPoint as="offset" />
          </mxGeometry>
        </mxCell>
        <mxCell id="Ra-5EAyiwIRAFrKvSMrq-24" value="Se connecter" style="ellipse;whiteSpace=wrap;html=1;" vertex="1" parent="1">
          <mxGeometry x="70" y="10" width="140" height="70" as="geometry" />
        </mxCell>
        <mxCell id="Ra-5EAyiwIRAFrKvSMrq-25" value="Gérer les posts et les commentaires autres que les siens" style="ellipse;whiteSpace=wrap;html=1;" vertex="1" parent="1">
          <mxGeometry x="430" y="305" width="150" height="85" as="geometry" />
        </mxCell>
        <mxCell id="Ra-5EAyiwIRAFrKvSMrq-26" value="Modifier un post, un commentaire" style="ellipse;whiteSpace=wrap;html=1;" vertex="1" parent="1">
          <mxGeometry x="630" y="420" width="140" height="70" as="geometry" />
        </mxCell>
        <mxCell id="Ra-5EAyiwIRAFrKvSMrq-27" value="Supprimer un post, un commentaire" style="ellipse;whiteSpace=wrap;html=1;" vertex="1" parent="1">
          <mxGeometry x="440" y="470" width="140" height="70" as="geometry" />
        </mxCell>
        <mxCell id="Ra-5EAyiwIRAFrKvSMrq-28" value="Valider un post, un commentaire" style="ellipse;whiteSpace=wrap;html=1;" vertex="1" parent="1">
          <mxGeometry x="670" y="310" width="140" height="70" as="geometry" />
        </mxCell>
        <mxCell id="Ra-5EAyiwIRAFrKvSMrq-29" value="Gérer les utilisateurs" style="ellipse;whiteSpace=wrap;html=1;" vertex="1" parent="1">
          <mxGeometry x="210" y="575" width="140" height="70" as="geometry" />
        </mxCell>
        <mxCell id="Ra-5EAyiwIRAFrKvSMrq-30" value="Désactiver un compte" style="ellipse;whiteSpace=wrap;html=1;" vertex="1" parent="1">
          <mxGeometry x="470" y="575" width="140" height="70" as="geometry" />
        </mxCell>
        <mxCell id="Ra-5EAyiwIRAFrKvSMrq-31" value="Supprimer un utilisateur" style="ellipse;whiteSpace=wrap;html=1;" vertex="1" parent="1">
          <mxGeometry x="414" y="670" width="140" height="70" as="geometry" />
        </mxCell>
        <mxCell id="Ra-5EAyiwIRAFrKvSMrq-32" value="Gérer de son compte utilisateur" style="ellipse;whiteSpace=wrap;html=1;" vertex="1" parent="1">
          <mxGeometry x="410" y="20" width="140" height="70" as="geometry" />
        </mxCell>
        <mxCell id="Ra-5EAyiwIRAFrKvSMrq-33" value="Ajouter une information" style="ellipse;whiteSpace=wrap;html=1;" vertex="1" parent="1">
          <mxGeometry x="370" y="160" width="140" height="70" as="geometry" />
        </mxCell>
        <mxCell id="Ra-5EAyiwIRAFrKvSMrq-34" value="Modifier ses informations" style="ellipse;whiteSpace=wrap;html=1;" vertex="1" parent="1">
          <mxGeometry x="590" y="200" width="140" height="70" as="geometry" />
        </mxCell>
        <mxCell id="Ra-5EAyiwIRAFrKvSMrq-35" value="Supprimer une information" style="ellipse;whiteSpace=wrap;html=1;" vertex="1" parent="1">
          <mxGeometry x="630" y="110" width="140" height="70" as="geometry" />
        </mxCell>
        <mxCell id="Ra-5EAyiwIRAFrKvSMrq-36" value="Création de son compte" style="ellipse;whiteSpace=wrap;html=1;" vertex="1" parent="1">
          <mxGeometry x="190" y="-400" width="140" height="70" as="geometry" />
        </mxCell>
        <mxCell id="Ra-5EAyiwIRAFrKvSMrq-38" value="&amp;lt;&amp;lt;include&amp;gt;&amp;gt;" style="html=1;verticalAlign=bottom;labelBackgroundColor=none;endArrow=open;endFill=0;dashed=1;rounded=0;exitX=0.988;exitY=0.741;exitDx=0;exitDy=0;entryX=0.046;entryY=0.266;entryDx=0;entryDy=0;exitPerimeter=0;entryPerimeter=0;" edge="1" parent="1" source="Ra-5EAyiwIRAFrKvSMrq-32" target="Ra-5EAyiwIRAFrKvSMrq-35">
          <mxGeometry x="0.2285" y="7" width="160" relative="1" as="geometry">
            <mxPoint x="510" y="130" as="sourcePoint" />
            <mxPoint x="625" y="130" as="targetPoint" />
            <mxPoint as="offset" />
          </mxGeometry>
        </mxCell>
        <mxCell id="Ra-5EAyiwIRAFrKvSMrq-39" value="&amp;lt;&amp;lt;include&amp;gt;&amp;gt;" style="html=1;verticalAlign=bottom;labelBackgroundColor=none;endArrow=open;endFill=0;dashed=1;rounded=0;exitX=0.843;exitY=0.955;exitDx=0;exitDy=0;entryX=0.196;entryY=0.103;entryDx=0;entryDy=0;exitPerimeter=0;entryPerimeter=0;" edge="1" parent="1" source="Ra-5EAyiwIRAFrKvSMrq-32" target="Ra-5EAyiwIRAFrKvSMrq-34">
          <mxGeometry x="0.2285" y="7" width="160" relative="1" as="geometry">
            <mxPoint x="490" y="103" as="sourcePoint" />
            <mxPoint x="618" y="160" as="targetPoint" />
            <mxPoint as="offset" />
          </mxGeometry>
        </mxCell>
        <mxCell id="Ra-5EAyiwIRAFrKvSMrq-40" value="&amp;lt;&amp;lt;include&amp;gt;&amp;gt;" style="html=1;verticalAlign=bottom;labelBackgroundColor=none;endArrow=open;endFill=0;dashed=1;rounded=0;exitX=0.405;exitY=1.025;exitDx=0;exitDy=0;entryX=0.5;entryY=0;entryDx=0;entryDy=0;exitPerimeter=0;" edge="1" parent="1" source="Ra-5EAyiwIRAFrKvSMrq-32" target="Ra-5EAyiwIRAFrKvSMrq-33">
          <mxGeometry x="0.2285" y="7" width="160" relative="1" as="geometry">
            <mxPoint x="410" y="100" as="sourcePoint" />
            <mxPoint x="539" y="220" as="targetPoint" />
            <mxPoint as="offset" />
          </mxGeometry>
        </mxCell>
        <mxCell id="Ra-5EAyiwIRAFrKvSMrq-41" value="&amp;lt;&amp;lt;include&amp;gt;&amp;gt;" style="html=1;verticalAlign=bottom;labelBackgroundColor=none;endArrow=open;endFill=0;dashed=1;rounded=0;exitX=0.005;exitY=0.705;exitDx=0;exitDy=0;entryX=1;entryY=0;entryDx=0;entryDy=0;exitPerimeter=0;" edge="1" parent="1" source="Ra-5EAyiwIRAFrKvSMrq-17" target="Ra-5EAyiwIRAFrKvSMrq-24">
          <mxGeometry x="0.2285" y="7" width="160" relative="1" as="geometry">
            <mxPoint x="221" y="130" as="sourcePoint" />
            <mxPoint x="350" y="250" as="targetPoint" />
            <mxPoint as="offset" />
          </mxGeometry>
        </mxCell>
        <mxCell id="Ra-5EAyiwIRAFrKvSMrq-46" value="&amp;lt;&amp;lt;include&amp;gt;&amp;gt;" style="html=1;verticalAlign=bottom;labelBackgroundColor=none;endArrow=open;endFill=0;dashed=1;rounded=0;exitX=0;exitY=0;exitDx=0;exitDy=0;entryX=1;entryY=1;entryDx=0;entryDy=0;" edge="1" parent="1" source="Ra-5EAyiwIRAFrKvSMrq-25" target="Ra-5EAyiwIRAFrKvSMrq-24">
          <mxGeometry x="0.2285" y="7" width="160" relative="1" as="geometry">
            <mxPoint x="250" y="432" as="sourcePoint" />
            <mxPoint x="180" y="330" as="targetPoint" />
            <mxPoint as="offset" />
            <Array as="points" />
          </mxGeometry>
        </mxCell>
        <mxCell id="Ra-5EAyiwIRAFrKvSMrq-47" value="&amp;lt;&amp;lt;include&amp;gt;&amp;gt;" style="html=1;verticalAlign=bottom;labelBackgroundColor=none;endArrow=open;endFill=0;dashed=1;rounded=0;exitX=0.5;exitY=0;exitDx=0;exitDy=0;entryX=0.5;entryY=1;entryDx=0;entryDy=0;" edge="1" parent="1" source="Ra-5EAyiwIRAFrKvSMrq-29" target="Ra-5EAyiwIRAFrKvSMrq-24">
          <mxGeometry x="-0.6608" y="-4" width="160" relative="1" as="geometry">
            <mxPoint x="240" y="472" as="sourcePoint" />
            <mxPoint x="60" y="80" as="targetPoint" />
            <mxPoint as="offset" />
            <Array as="points" />
          </mxGeometry>
        </mxCell>
        <mxCell id="Ra-5EAyiwIRAFrKvSMrq-48" value="&amp;lt;&amp;lt;include&amp;gt;&amp;gt;" style="html=1;verticalAlign=bottom;labelBackgroundColor=none;endArrow=open;endFill=0;dashed=1;rounded=0;exitX=1;exitY=0.5;exitDx=0;exitDy=0;entryX=0;entryY=0.5;entryDx=0;entryDy=0;" edge="1" parent="1" source="Ra-5EAyiwIRAFrKvSMrq-29" target="Ra-5EAyiwIRAFrKvSMrq-30">
          <mxGeometry x="0.2285" y="7" width="160" relative="1" as="geometry">
            <mxPoint x="391" y="783" as="sourcePoint" />
            <mxPoint x="280" y="670" as="targetPoint" />
            <mxPoint as="offset" />
          </mxGeometry>
        </mxCell>
        <mxCell id="Ra-5EAyiwIRAFrKvSMrq-49" value="&amp;lt;&amp;lt;include&amp;gt;&amp;gt;" style="html=1;verticalAlign=bottom;labelBackgroundColor=none;endArrow=open;endFill=0;dashed=1;rounded=0;exitX=0.619;exitY=0.972;exitDx=0;exitDy=0;entryX=0;entryY=0.5;entryDx=0;entryDy=0;exitPerimeter=0;" edge="1" parent="1" source="Ra-5EAyiwIRAFrKvSMrq-29" target="Ra-5EAyiwIRAFrKvSMrq-31">
          <mxGeometry x="0.2285" y="7" width="160" relative="1" as="geometry">
            <mxPoint x="294" y="690" as="sourcePoint" />
            <mxPoint x="414" y="690" as="targetPoint" />
            <mxPoint as="offset" />
          </mxGeometry>
        </mxCell>
        <mxCell id="Ra-5EAyiwIRAFrKvSMrq-53" value="" style="endArrow=none;html=1;rounded=0;exitX=0.012;exitY=0.627;exitDx=0;exitDy=0;exitPerimeter=0;" edge="1" parent="1" source="Ra-5EAyiwIRAFrKvSMrq-15">
          <mxGeometry width="50" height="50" relative="1" as="geometry">
            <mxPoint x="190" y="-455" as="sourcePoint" />
            <mxPoint x="-50" y="-445" as="targetPoint" />
          </mxGeometry>
        </mxCell>
        <mxCell id="Ra-5EAyiwIRAFrKvSMrq-55" value="" style="endArrow=none;html=1;rounded=0;exitX=0.047;exitY=0.315;exitDx=0;exitDy=0;exitPerimeter=0;" edge="1" parent="1" source="Ra-5EAyiwIRAFrKvSMrq-17">
          <mxGeometry width="50" height="50" relative="1" as="geometry">
            <mxPoint x="212" y="-66" as="sourcePoint" />
            <mxPoint x="-30" y="-70" as="targetPoint" />
          </mxGeometry>
        </mxCell>
        <mxCell id="Ra-5EAyiwIRAFrKvSMrq-58" value="Gérer ses commentaires" style="ellipse;whiteSpace=wrap;html=1;" vertex="1" parent="1">
          <mxGeometry x="370" y="-300" width="140" height="70" as="geometry" />
        </mxCell>
        <mxCell id="Ra-5EAyiwIRAFrKvSMrq-59" value="" style="endArrow=none;html=1;rounded=0;exitX=0;exitY=0.5;exitDx=0;exitDy=0;" edge="1" parent="1" source="Ra-5EAyiwIRAFrKvSMrq-36">
          <mxGeometry width="50" height="50" relative="1" as="geometry">
            <mxPoint x="202" y="-431" as="sourcePoint" />
            <mxPoint x="-40" y="-435" as="targetPoint" />
          </mxGeometry>
        </mxCell>
        <mxCell id="Ra-5EAyiwIRAFrKvSMrq-60" value="Ajouter un commentaire" style="ellipse;whiteSpace=wrap;html=1;" vertex="1" parent="1">
          <mxGeometry x="370" y="-440" width="140" height="70" as="geometry" />
        </mxCell>
        <mxCell id="Ra-5EAyiwIRAFrKvSMrq-61" value="Modifier son commentaire" style="ellipse;whiteSpace=wrap;html=1;" vertex="1" parent="1">
          <mxGeometry x="530" y="-450" width="140" height="70" as="geometry" />
        </mxCell>
        <mxCell id="Ra-5EAyiwIRAFrKvSMrq-62" value="Supprimer son commentaire" style="ellipse;whiteSpace=wrap;html=1;" vertex="1" parent="1">
          <mxGeometry x="670" y="-400" width="140" height="70" as="geometry" />
        </mxCell>
        <mxCell id="Ra-5EAyiwIRAFrKvSMrq-63" value="&amp;lt;&amp;lt;include&amp;gt;&amp;gt;" style="html=1;verticalAlign=bottom;labelBackgroundColor=none;endArrow=open;endFill=0;dashed=1;rounded=0;exitX=0.5;exitY=0;exitDx=0;exitDy=0;entryX=0.5;entryY=1;entryDx=0;entryDy=0;" edge="1" parent="1" source="Ra-5EAyiwIRAFrKvSMrq-58" target="Ra-5EAyiwIRAFrKvSMrq-60">
          <mxGeometry x="0.1429" width="160" relative="1" as="geometry">
            <mxPoint x="439.58" y="-260" as="sourcePoint" />
            <mxPoint x="439.58" y="-330" as="targetPoint" />
            <mxPoint as="offset" />
          </mxGeometry>
        </mxCell>
        <mxCell id="Ra-5EAyiwIRAFrKvSMrq-67" value="&amp;lt;&amp;lt;include&amp;gt;&amp;gt;" style="html=1;verticalAlign=bottom;labelBackgroundColor=none;endArrow=open;endFill=0;dashed=1;rounded=0;exitX=1;exitY=0;exitDx=0;exitDy=0;entryX=0;entryY=1;entryDx=0;entryDy=0;" edge="1" parent="1" source="Ra-5EAyiwIRAFrKvSMrq-58" target="Ra-5EAyiwIRAFrKvSMrq-61">
          <mxGeometry x="0.0041" y="-4" width="160" relative="1" as="geometry">
            <mxPoint x="539.63" y="-290" as="sourcePoint" />
            <mxPoint x="539.63" y="-360" as="targetPoint" />
            <mxPoint as="offset" />
          </mxGeometry>
        </mxCell>
        <mxCell id="Ra-5EAyiwIRAFrKvSMrq-68" value="&amp;lt;&amp;lt;include&amp;gt;&amp;gt;" style="html=1;verticalAlign=bottom;labelBackgroundColor=none;endArrow=open;endFill=0;dashed=1;rounded=0;exitX=1;exitY=0.5;exitDx=0;exitDy=0;entryX=0;entryY=0.5;entryDx=0;entryDy=0;" edge="1" parent="1" source="Ra-5EAyiwIRAFrKvSMrq-58" target="Ra-5EAyiwIRAFrKvSMrq-62">
          <mxGeometry width="160" relative="1" as="geometry">
            <mxPoint x="490" y="-280" as="sourcePoint" />
            <mxPoint x="565" y="-345" as="targetPoint" />
            <mxPoint as="offset" />
          </mxGeometry>
        </mxCell>
        <mxCell id="Ra-5EAyiwIRAFrKvSMrq-70" value="" style="endArrow=none;html=1;rounded=0;exitX=0;exitY=0.5;exitDx=0;exitDy=0;" edge="1" parent="1" source="Ra-5EAyiwIRAFrKvSMrq-58">
          <mxGeometry width="50" height="50" relative="1" as="geometry">
            <mxPoint x="377" y="-148" as="sourcePoint" />
            <mxPoint x="-30" y="-90" as="targetPoint" />
          </mxGeometry>
        </mxCell>
        <mxCell id="Ra-5EAyiwIRAFrKvSMrq-71" value="" style="endArrow=block;dashed=1;endFill=0;endSize=12;html=1;rounded=0;exitX=0.5;exitY=0;exitDx=0;exitDy=0;exitPerimeter=0;" edge="1" parent="1" source="Ra-5EAyiwIRAFrKvSMrq-11">
          <mxGeometry width="160" relative="1" as="geometry">
            <mxPoint x="-50" y="-220" as="sourcePoint" />
            <mxPoint x="-65" y="-400" as="targetPoint" />
          </mxGeometry>
        </mxCell>
        <mxCell id="Ra-5EAyiwIRAFrKvSMrq-72" value="" style="endArrow=block;dashed=1;endFill=0;endSize=12;html=1;rounded=0;exitX=0.5;exitY=0;exitDx=0;exitDy=0;exitPerimeter=0;" edge="1" parent="1" source="Ra-5EAyiwIRAFrKvSMrq-10">
          <mxGeometry width="160" relative="1" as="geometry">
            <mxPoint x="-65.62" y="260" as="sourcePoint" />
            <mxPoint x="-65.62" y="-30" as="targetPoint" />
          </mxGeometry>
        </mxCell>
        <mxCell id="Ra-5EAyiwIRAFrKvSMrq-73" value="" style="endArrow=block;dashed=1;endFill=0;endSize=12;html=1;rounded=0;" edge="1" parent="1">
          <mxGeometry width="160" relative="1" as="geometry">
            <mxPoint x="-66" y="590" as="sourcePoint" />
            <mxPoint x="-65.63000000000001" y="375" as="targetPoint" />
          </mxGeometry>
        </mxCell>
        <mxCell id="Ra-5EAyiwIRAFrKvSMrq-75" value="Publier un post" style="ellipse;whiteSpace=wrap;html=1;" vertex="1" parent="1">
          <mxGeometry x="640" y="10" width="140" height="70" as="geometry" />
        </mxCell>
        <mxCell id="Ra-5EAyiwIRAFrKvSMrq-76" value="&amp;lt;&amp;lt;include&amp;gt;&amp;gt;" style="html=1;verticalAlign=bottom;labelBackgroundColor=none;endArrow=open;endFill=0;dashed=1;rounded=0;exitX=1;exitY=1;exitDx=0;exitDy=0;entryX=0;entryY=0.5;entryDx=0;entryDy=0;" edge="1" parent="1" source="Ra-5EAyiwIRAFrKvSMrq-17" target="Ra-5EAyiwIRAFrKvSMrq-75">
          <mxGeometry x="-0.0625" width="160" relative="1" as="geometry">
            <mxPoint x="510" y="20" as="sourcePoint" />
            <mxPoint x="640" y="20" as="targetPoint" />
            <mxPoint as="offset" />
          </mxGeometry>
        </mxCell>
        <mxCell id="Ra-5EAyiwIRAFrKvSMrq-77" value="&amp;lt;&amp;lt;include&amp;gt;&amp;gt;" style="html=1;verticalAlign=bottom;labelBackgroundColor=none;endArrow=open;endFill=0;dashed=1;rounded=0;exitX=1;exitY=0.5;exitDx=0;exitDy=0;entryX=0;entryY=0.5;entryDx=0;entryDy=0;" edge="1" parent="1" source="Ra-5EAyiwIRAFrKvSMrq-25" target="Ra-5EAyiwIRAFrKvSMrq-28">
          <mxGeometry x="-0.0625" width="160" relative="1" as="geometry">
            <mxPoint x="575" y="344.47" as="sourcePoint" />
            <mxPoint x="705" y="344.47" as="targetPoint" />
            <mxPoint as="offset" />
          </mxGeometry>
        </mxCell>
        <mxCell id="Ra-5EAyiwIRAFrKvSMrq-78" value="&amp;lt;&amp;lt;include&amp;gt;&amp;gt;" style="html=1;verticalAlign=bottom;labelBackgroundColor=none;endArrow=open;endFill=0;dashed=1;rounded=0;exitX=1;exitY=1;exitDx=0;exitDy=0;entryX=0;entryY=0;entryDx=0;entryDy=0;" edge="1" parent="1" source="Ra-5EAyiwIRAFrKvSMrq-25" target="Ra-5EAyiwIRAFrKvSMrq-26">
          <mxGeometry x="-0.0625" width="160" relative="1" as="geometry">
            <mxPoint x="575" y="393" as="sourcePoint" />
            <mxPoint x="665" y="390" as="targetPoint" />
            <mxPoint as="offset" />
          </mxGeometry>
        </mxCell>
        <mxCell id="Ra-5EAyiwIRAFrKvSMrq-79" value="&amp;lt;&amp;lt;include&amp;gt;&amp;gt;" style="html=1;verticalAlign=bottom;labelBackgroundColor=none;endArrow=open;endFill=0;dashed=1;rounded=0;exitX=0.5;exitY=1;exitDx=0;exitDy=0;entryX=0.5;entryY=0;entryDx=0;entryDy=0;" edge="1" parent="1" source="Ra-5EAyiwIRAFrKvSMrq-25" target="Ra-5EAyiwIRAFrKvSMrq-27">
          <mxGeometry x="-0.0625" width="160" relative="1" as="geometry">
            <mxPoint x="497" y="410" as="sourcePoint" />
            <mxPoint x="590" y="463" as="targetPoint" />
            <mxPoint as="offset" />
          </mxGeometry>
        </mxCell>
        <mxCell id="Ra-5EAyiwIRAFrKvSMrq-80" value="" style="endArrow=none;html=1;rounded=0;exitX=0;exitY=0.5;exitDx=0;exitDy=0;" edge="1" parent="1" source="Ra-5EAyiwIRAFrKvSMrq-25">
          <mxGeometry width="50" height="50" relative="1" as="geometry">
            <mxPoint x="201" y="390" as="sourcePoint" />
            <mxPoint x="-50" y="330" as="targetPoint" />
          </mxGeometry>
        </mxCell>
        <mxCell id="Ra-5EAyiwIRAFrKvSMrq-81" value="" style="endArrow=none;html=1;rounded=0;exitX=0;exitY=0.5;exitDx=0;exitDy=0;" edge="1" parent="1" source="Ra-5EAyiwIRAFrKvSMrq-29">
          <mxGeometry width="50" height="50" relative="1" as="geometry">
            <mxPoint x="455" y="526" as="sourcePoint" />
            <mxPoint x="-40" y="630" as="targetPoint" />
          </mxGeometry>
        </mxCell>
        <mxCell id="Ra-5EAyiwIRAFrKvSMrq-82" value="&amp;lt;&amp;lt;include&amp;gt;&amp;gt;" style="html=1;verticalAlign=bottom;labelBackgroundColor=none;endArrow=open;endFill=0;dashed=1;rounded=0;exitX=0;exitY=1;exitDx=0;exitDy=0;entryX=1;entryY=0.5;entryDx=0;entryDy=0;" edge="1" parent="1" source="Ra-5EAyiwIRAFrKvSMrq-32" target="Ra-5EAyiwIRAFrKvSMrq-24">
          <mxGeometry x="0.0551" y="6" width="160" relative="1" as="geometry">
            <mxPoint x="392" y="10" as="sourcePoint" />
            <mxPoint x="320" y="31" as="targetPoint" />
            <mxPoint as="offset" />
          </mxGeometry>
        </mxCell>
        <mxCell id="Ra-5EAyiwIRAFrKvSMrq-83" value="" style="endArrow=none;html=1;rounded=0;exitX=0.071;exitY=0.286;exitDx=0;exitDy=0;exitPerimeter=0;" edge="1" parent="1" source="Ra-5EAyiwIRAFrKvSMrq-32">
          <mxGeometry width="50" height="50" relative="1" as="geometry">
            <mxPoint x="367" y="-38" as="sourcePoint" />
            <mxPoint x="-40" y="-60" as="targetPoint" />
            <Array as="points">
              <mxPoint x="290" y="-30" />
            </Array>
          </mxGeometry>
        </mxCell>
        <mxCell id="Ra-5EAyiwIRAFrKvSMrq-84" value="&amp;lt;&amp;lt;include&amp;gt;&amp;gt;" style="html=1;verticalAlign=bottom;labelBackgroundColor=none;endArrow=open;endFill=0;dashed=1;rounded=0;exitX=0;exitY=1;exitDx=0;exitDy=0;entryX=0.5;entryY=0;entryDx=0;entryDy=0;" edge="1" parent="1" source="Ra-5EAyiwIRAFrKvSMrq-58" target="Ra-5EAyiwIRAFrKvSMrq-24">
          <mxGeometry x="-0.079" y="-7" width="160" relative="1" as="geometry">
            <mxPoint x="321" y="-140" as="sourcePoint" />
            <mxPoint x="140" y="-98" as="targetPoint" />
            <mxPoint as="offset" />
          </mxGeometry>
        </mxCell>
        <mxCell id="Ra-5EAyiwIRAFrKvSMrq-85" value="Publier un post" style="ellipse;whiteSpace=wrap;html=1;" vertex="1" parent="1">
          <mxGeometry x="660" y="-290" width="140" height="70" as="geometry" />
        </mxCell>
        <mxCell id="Ra-5EAyiwIRAFrKvSMrq-86" value="&amp;lt;&amp;lt;include&amp;gt;&amp;gt;" style="html=1;verticalAlign=bottom;labelBackgroundColor=none;endArrow=open;endFill=0;dashed=1;rounded=0;exitX=1;exitY=1;exitDx=0;exitDy=0;entryX=0;entryY=0.5;entryDx=0;entryDy=0;" edge="1" parent="1" source="Ra-5EAyiwIRAFrKvSMrq-58" target="Ra-5EAyiwIRAFrKvSMrq-85">
          <mxGeometry width="160" relative="1" as="geometry">
            <mxPoint x="520" y="-255" as="sourcePoint" />
            <mxPoint x="680" y="-355" as="targetPoint" />
            <mxPoint as="offset" />
          </mxGeometry>
        </mxCell>
      </root>
    </mxGraphModel>
  </diagram>
</mxfile>
